<svg width="87" height="33" viewBox="0 0 87 33" fill="none" xmlns="http://www.w3.org/2000/svg">
<g clip-path="url(#clip0)">
<path d="M57.0889 31.9136L69.0281 2.20302C69.1197 1.974 69.1536 1.72611 69.1267 1.48105C69.0998 1.23598 69.0131 1.0012 68.874 0.797241C68.7349 0.593277 68.5477 0.426344 68.3288 0.311038C68.11 0.195733 67.866 0.13557 67.6184 0.135809H62.101C61.8035 0.13605 61.5126 0.223454 61.2646 0.38713C61.0166 0.550805 60.8225 0.783514 60.7065 1.05625L53.6733 17.5738C53.552 17.8589 53.3455 18.0999 53.0819 18.2641C52.8183 18.4283 52.5103 18.5079 52.1998 18.492C51.8892 18.476 51.5911 18.3654 51.3458 18.1751C51.1006 17.9847 50.92 17.7239 50.8288 17.428L45.8065 1.17696C45.7113 0.868109 45.5191 0.597824 45.258 0.405875C44.997 0.213926 44.681 0.110446 44.3564 0.110658H39.7333C39.4122 0.110174 39.0992 0.211233 38.8395 0.39926C38.5798 0.587286 38.3868 0.852564 38.2883 1.15684L32.9477 17.7549C32.8552 18.0435 32.6776 18.2976 32.438 18.4843C32.1984 18.671 31.9078 18.7815 31.6042 18.8016C31.3006 18.8217 30.998 18.7503 30.7357 18.5969C30.4734 18.4434 30.2635 18.2148 30.1335 17.941L28.7642 15.059C28.6342 14.7852 28.4243 14.5566 28.162 14.4031C27.8997 14.2497 27.5971 14.1783 27.2935 14.1984C26.9899 14.2185 26.6993 14.329 26.4597 14.5157C26.2201 14.7024 26.0425 14.9565 25.95 15.2451L22.9184 24.6054C22.8544 24.8044 22.8325 25.0144 22.8543 25.2222C22.876 25.43 22.9409 25.631 23.0447 25.8125L26.6624 32.1148C26.7948 32.3452 26.9861 32.5368 27.2167 32.6702C27.4474 32.8035 27.7093 32.8739 27.976 32.8743H34.7667C35.0857 32.8744 35.3966 32.7743 35.6551 32.5882C35.9137 32.4022 36.1067 32.1397 36.2066 31.8381L40.6933 18.2579C40.7918 17.9542 40.9845 17.6893 41.2437 17.5015C41.5029 17.3136 41.8152 17.2124 42.1358 17.2124C42.4564 17.2124 42.7688 17.3136 43.028 17.5015C43.2872 17.6893 43.4799 17.9542 43.5783 18.2579L47.8578 31.8381C47.9546 32.1443 48.1468 32.4118 48.4067 32.6017C48.6665 32.7917 48.9805 32.8942 49.3029 32.8944H55.659C55.9696 32.8964 56.2733 32.8034 56.529 32.628C56.7847 32.4526 56.9802 32.2032 57.0889 31.9136Z" fill="#FF173E"/>
<path d="M8.49309 21.5464H13.9701C15.1431 21.5343 16.3123 21.4096 17.4614 21.1742C17.7306 21.123 17.9809 21.0001 18.1855 20.8185C18.3902 20.637 18.5415 20.4035 18.6235 20.1431L19.7249 16.6223L23.3426 5.30545C23.4219 5.05883 23.4362 4.79603 23.384 4.54234C23.3318 4.28864 23.2148 4.05259 23.0445 3.8569C22.8878 3.68086 22.7009 3.49475 22.4685 3.25836C20.5485 1.07546 17.5372 -0.0159912 13.7023 -0.0159912H2.01571C1.4797 -0.0159912 0.965648 0.195977 0.586632 0.57328C0.207617 0.950582 -0.00531006 1.46231 -0.00531006 1.9959V31.2035C-0.00531006 31.6037 0.154385 31.9875 0.438647 32.2704C0.722908 32.5534 1.10845 32.7124 1.51046 32.7124H6.70449C7.10649 32.7124 7.49204 32.5534 7.7763 32.2704C8.06056 31.9875 8.22025 31.6037 8.22025 31.2035V21.5464H8.49309ZM15.6172 7.63924C16.4408 8.45909 16.7136 9.55054 16.7136 10.9136C16.7136 12.2766 16.4408 13.3681 15.6172 14.1879C14.7936 15.0078 13.4244 15.551 11.5095 15.551H9.9937C9.5917 15.551 9.20615 15.392 8.92189 15.109C8.63763 14.8261 8.47794 14.4423 8.47794 14.0421V8.32832C8.47794 7.92813 8.63763 7.54433 8.92189 7.26135C9.20615 6.97837 9.5917 6.8194 9.9937 6.8194H11.4084H11.5752C13.7174 6.56456 15.0648 6.84119 15.6172 7.6493V7.63924ZM64.6674 26.9986L66.7541 21.6873C66.8649 21.4046 67.0586 21.1618 67.3101 20.9904C67.5615 20.819 67.8591 20.7271 68.1638 20.7266H72.3473C72.589 20.7251 72.8269 20.6661 73.041 20.5545C73.2552 20.4429 73.4394 20.282 73.5783 20.0851C73.7173 19.8882 73.8069 19.6611 73.8397 19.4227C73.8726 19.1843 73.8477 18.9415 73.7671 18.7147L71.1701 11.7485C71.0346 11.3989 71.0346 11.0117 71.1701 10.6621L74.6109 2.11158C74.6659 1.96925 74.7629 1.84686 74.8892 1.76052C75.0154 1.67419 75.165 1.62798 75.3182 1.62798C75.4714 1.62798 75.621 1.67419 75.7473 1.76052C75.8736 1.84686 75.9706 1.96925 76.0256 2.11158L86.8987 30.9621C86.9844 31.1903 87.0132 31.4358 86.9828 31.6776C86.9524 31.9193 86.8637 32.1502 86.7242 32.3503C86.5846 32.5505 86.3985 32.7141 86.1816 32.8271C85.9648 32.9401 85.7237 32.9991 85.4789 32.9991H79.6735C79.3667 32.9988 79.0673 32.9059 78.8147 32.7326C78.5621 32.5592 78.3682 32.3137 78.2588 32.0284L76.7936 28.241C76.6842 27.9557 76.4903 27.7101 76.2377 27.5368C75.9851 27.3635 75.6856 27.2705 75.3789 27.2702H64.6674V26.9986Z" fill="#0276DB"/>
</g>
<defs>
<clipPath id="clip0">
<rect width="87" height="33" fill="white"/>
</clipPath>
</defs>
</svg>
